# xmcd
#
# Track frame offsets: 
#        150
#        27135
#        64244
#        86397
#        104532
#        125562
#        156876
#        174690
#
# Disc length: 2616 seconds
#
# Revision: 0
# Processed by: cddbd v1.5.2PL0 Copyright (c) Steve Scherf et al.
# Submitted via: ExactAudioCopy v0.95a5
#
DISCID=650a3608
DTITLE=未知艺术家 - Rhythm Africa Band Live on Dhow
DYEAR=2015
DGENRE=Country
TTITLE0=Macho Juu
TTITLE1=Maisha Yangu
TTITLE2=Shere
TTITLE3=Maneno Ya Watu
TTITLE4=Mazoea
TTITLE5=Nikiwa Ndani
TTITLE6=Mombasa bu Nite
TTITLE7=Madina
EXTD=
EXTT0=
EXTT1=
EXTT2=
EXTT3=
EXTT4=
EXTT5=
EXTT6=
EXTT7=
PLAYORDER=
